<?xml version="1.0" encoding="utf-8"?>
<svg version="1.1" id="Layer_1" x="0px" y="0px" viewBox="0 0 512.04 512.04" fill="white" style="enable-background:new 255 255 512.04 512.04;" xmlns="http://www.w3.org/2000/svg">
  <g transform="matrix(-1, 0, 0, -1, 512.039795, 512.040283)">
    <g>
      <path d="M 508.933 146.807 l -42.347 -42.347 c -4.267 -4.053 -10.88 -4.053 -15.147 0 L 256.027 300.193 L 60.507 104.46 c -4.267 -4.053 -10.88 -4.053 -15.147 0 L 3.12 146.807 c -4.16 4.16 -4.16 10.88 0 15.04 L 248.453 407.5 c 4.16 4.16 10.88 4.16 15.04 0 l 245.333 -245.653 C 513.093 157.687 513.093 150.967 508.933 146.807 Z M 256.027 384.887 L 25.733 154.38 l 27.2 -27.307 l 195.52 195.733 c 4.267 4.053 10.88 4.053 15.147 0 l 195.52 -195.733 l 27.2 27.307 L 256.027 384.887 Z" style=""/>
    </g>
  </g>
  <g/>
  <g/>
  <g/>
  <g/>
  <g/>
  <g/>
  <g/>
  <g/>
  <g/>
  <g/>
  <g/>
  <g/>
  <g/>
  <g/>
  <g/>
</svg>